<?xml version="1.0" encoding="UTF-8" standalone="no"?>
<!DOCTYPE svg PUBLIC "-//W3C//DTD SVG 1.1//EN" "http://www.w3.org/Graphics/SVG/1.1/DTD/svg11.dtd">
<svg width="100%" height="100%" viewBox="0 0 291 39" version="1.1" xmlns="http://www.w3.org/2000/svg" xmlns:xlink="http://www.w3.org/1999/xlink" xml:space="preserve" xmlns:serif="http://www.serif.com/" style="fill-rule:evenodd;clip-rule:evenodd;stroke-linejoin:round;stroke-miterlimit:2;">
    <g id="ArtBoard1" transform="matrix(0.9001,0,0,0.606045,93.512,-28.767)">
        <rect x="-103.891" y="47.467" width="322.922" height="62.75" style="fill:none;"/>
        <g id="Lag-1" serif:id="Lag 1" transform="matrix(0.561805,0,0,0.834396,-109.277,-272.812)">
            <g transform="matrix(0,1,1,0,431.806,414.851)">
                <path d="M5.106,-5.106C2.286,-5.106 -0,-2.821 -0,-0.002C-0,2.822 2.286,5.106 5.106,5.106C7.926,5.106 10.214,2.822 10.214,-0.002C10.214,-2.821 7.926,-5.106 5.106,-5.106" style="fill:rgb(0,105,246);fill-rule:nonzero;"/>
            </g>
            <g transform="matrix(1,0,0,1,42.7983,442.123)">
                <path d="M0,-41.491L0,-46.903L-23.798,-46.903L-23.798,5.412L-17.97,5.412L-17.97,-20.537L-0.555,-20.537L-0.555,-25.949L-17.97,-25.949L-17.97,-41.491L0,-41.491Z" style="fill:rgb(20,105,246);fill-rule:nonzero;"/>
            </g>
            <g transform="matrix(1,0,0,1,64.2534,447.535)">
                <path d="M0,-52.315L-5.828,-52.315L-5.828,0L14.432,0L14.432,-5.412L0,-5.412L0,-52.315Z" style="fill:rgb(0,105,246);fill-rule:nonzero;"/>
            </g>
            <g transform="matrix(1,0,0,1,90.7207,395.22)">
                <path d="M0,52.315L27.129,52.315L27.129,46.903L5.828,46.903L5.828,26.366L26.504,26.366L26.504,20.954L5.828,20.954L5.828,5.412L27.129,5.412L27.129,0L0,0L0,52.315Z" style="fill:rgb(40,105,246);fill-rule:nonzero;"/>
            </g>
            <g transform="matrix(1,0,0,1,134.369,395.359)">
                <path d="M0,52.176L5.828,52.176L5.828,11.864L46.625,54.535L46.625,-0.139L40.797,-0.139L40.797,40.381L0,-2.359L0,52.176Z" style="fill:rgb(60,105,246);fill-rule:nonzero;"/>
            </g>
            <g transform="matrix(1,0,0,1,226.549,440.319)">
                <path d="M0,-37.883C-2.775,-43.017 -7.702,-46.001 -13.53,-46.001C-21.301,-46.001 -28.17,-40.797 -28.17,-32.679C-28.17,-25.186 -22.897,-22.064 -16.791,-19.288L-13.599,-17.901C-8.742,-15.68 -3.955,-13.598 -3.955,-7.493C-3.955,-1.596 -9.089,2.706 -14.709,2.706C-20.33,2.706 -24.423,-1.665 -25.187,-7.007L-30.876,-5.411C-29.21,2.706 -22.966,8.118 -14.571,8.118C-5.481,8.118 1.873,1.111 1.873,-8.048C1.873,-16.374 -3.886,-19.774 -10.686,-22.757L-14.154,-24.284C-17.693,-25.88 -22.341,-27.961 -22.341,-32.471C-22.341,-37.258 -18.317,-40.589 -13.669,-40.589C-9.228,-40.589 -6.73,-38.508 -4.649,-34.899L0,-37.883Z" style="fill:rgb(80,105,246);fill-rule:nonzero;"/>
            </g>
            <g transform="matrix(1,0,0,1,249.036,442.123)">
                <path d="M0,-41.491L2.29,-41.491C9.436,-41.491 14.432,-40.658 14.432,-32.749C14.432,-24.631 8.812,-23.868 2.22,-23.868L0,-23.868L0,-41.491ZM-5.829,5.412L6.314,5.412C16.652,5.412 25.047,1.25 25.047,-9.158C25.047,-15.403 21.37,-21.023 15.125,-22.55C18.664,-24.908 20.26,-28.516 20.26,-32.749C20.26,-43.434 12.281,-46.903 2.775,-46.903L-5.829,-46.903L-5.829,5.412ZM0,-18.871L5.065,-18.871C11.448,-18.871 19.219,-17.694 19.219,-9.574C19.219,-1.596 12.35,0 5.828,0L0,0L0,-18.871Z" style="fill:rgb(100,105,246);"/>
            </g>
            <g transform="matrix(1,0,0,1,294.558,448.437)">
                <path d="M0,-53.217L-5.829,-53.217L-5.829,-20.468C-5.829,-14.502 -5.273,-9.715 -0.694,-5.342C2.845,-1.873 7.909,0 12.836,0C18.108,0 23.313,-2.082 26.92,-5.967C31.084,-10.269 31.5,-14.779 31.5,-20.468L31.5,-53.217L25.672,-53.217L25.672,-22.064C25.672,-17.97 25.879,-13.39 23.104,-10.06C20.676,-7.146 16.583,-5.412 12.836,-5.412C9.02,-5.412 4.579,-7.217 2.29,-10.408C-0.139,-13.738 0,-18.177 0,-22.064L0,-53.217Z" style="fill:rgb(120,105,246);fill-rule:nonzero;"/>
            </g>
            <g transform="matrix(1,0,0,1,348.49,418.185)">
                <path d="M0,6.385L1.457,6.385L17.275,29.35L24.422,29.35L7.77,5.899C15.818,5.205 20.883,-0.485 20.883,-8.533C20.883,-20.328 11.656,-22.965 1.734,-22.965L-5.828,-22.965L-5.828,29.35L0,29.35L0,6.385ZM0,-17.553L1.734,-17.553C8.742,-17.553 15.055,-16.72 15.055,-8.117C15.055,0.001 8.395,1.25 1.803,1.25L0,1.25L0,-17.553Z" style="fill:rgb(140,105,246);"/>
            </g>
            <g transform="matrix(1,0,0,1,431.959,416.667)">
                <path d="M0,9.095C0.697,13.124 2.795,16.312 5.934,19.505C9.75,23.32 15.301,26.165 20.781,26.165C29.871,26.165 39.24,19.15 40.035,9.595L40.084,9.099L40.455,9.097C41.324,13.771 43.893,17.156 46.371,19.505C50.287,23.218 55.738,26.165 61.219,26.165C70.309,26.165 79.357,19.544 80.396,9.79L80.482,9.099L80.844,9.099C81.436,12.241 83.443,16.128 86.762,19.505C90.576,23.32 96.127,26.165 101.609,26.165C110.697,26.165 119.969,19.3 120.764,9.745L120.854,9.097L121.346,9.107C122.119,12.365 123.789,16.103 127.131,19.505C130.947,23.32 136.496,26.165 141.979,26.165C142.246,26.165 142.727,26.103 142.994,26.091L143.008,31.562L142.117,31.577C133.99,31.577 126.697,27.849 121.768,22.033C121.557,22.3 121.336,22.568 121.105,22.835C116.318,28.386 109.033,31.577 101.748,31.577C93.615,31.577 86.318,27.845 81.389,22.021C81.174,22.292 80.949,22.564 80.717,22.835C75.928,28.386 68.643,31.577 61.357,31.577C53.211,31.577 45.904,27.831 40.975,21.991C40.752,22.273 40.52,22.554 40.277,22.835C35.49,28.386 28.205,31.577 20.92,31.577C12.35,31.577 4.709,27.433 -0.213,21.064C-5.162,27.45 -12.893,31.577 -21.594,31.577C-36.521,31.577 -48.623,19.476 -48.623,4.548C-48.623,-10.381 -36.521,-22.482 -21.594,-22.482C-14.029,-22.482 -7.146,-19.432 -2.24,-14.48L-6.232,-10.62C-10.146,-14.584 -15.584,-17.041 -21.594,-17.041C-33.518,-17.041 -43.182,-7.375 -43.182,4.548C-43.182,16.47 -33.518,26.136 -21.594,26.136C-11.217,26.136 -2.477,18.859 -0.4,9.101L0,9.095Z" style="fill:rgb(160,105,246);fill-rule:nonzero;"/>
            </g>
        </g>
    </g>
</svg>
